<?xml version="1.0" encoding="UTF-8"?>
<svg version="1.1" xmlns="http://www.w3.org/2000/svg" width="64" height="64">
<path d="M0 0 C5.52569189 2.97537256 8.40089372 6.40192494 11 12 C13.31 12 15.62 12 18 12 C18 12.66 18 13.32 18 14 C16.35 14.33 14.7 14.66 13 15 C13.804375 15.804375 14.60875 16.60875 15.4375 17.4375 C18.96571391 20.96571391 19.14921312 21.81139969 19.42578125 26.89453125 C18.80601663 29.95923885 17.4000526 31.04642205 15 33 C12.31445312 33.48583984 12.31445312 33.48583984 9.28125 33.4609375 C8.18425781 33.45707031 7.08726563 33.45320313 5.95703125 33.44921875 C4.81621094 33.42472656 3.67539062 33.40023437 2.5 33.375 C1.35917969 33.37371094 0.21835937 33.37242188 -0.95703125 33.37109375 C-10.47652141 33.27041759 -10.47652141 33.27041759 -14 31 C-15.046875 29.0546875 -15.046875 29.0546875 -15.75 26.875 C-15.99234375 26.15054688 -16.2346875 25.42609375 -16.484375 24.6796875 C-16.65453125 24.12539063 -16.8246875 23.57109375 -17 23 C-18.65 23.66 -20.3 24.32 -22 25 C-22.33 24.01 -22.66 23.02 -23 22 C-19.77208445 19.8480563 -18.71599191 19.79913557 -15 20 C-15.33 19.34 -15.66 18.68 -16 18 C-16.6198407 13.7081916 -16.95106138 9.67940586 -14.765625 5.8203125 C-10.40341585 0.61589465 -6.90330781 -0.58502609 0 0 Z " fill="#281C16" transform="translate(35,18)"/>
<path d="M0 0 C3.02243008 1.03037389 4.18956946 3.03219596 5.890625 5.64453125 C6.65375 6.28390625 7.416875 6.92328125 8.203125 7.58203125 C9.890625 9.64453125 9.890625 9.64453125 10.078125 12.64453125 C8.77404622 15.93904606 7.50794041 17.37657873 4.31640625 18.94921875 C-2.1832859 20.8122545 -10.29580405 21.13132721 -16.359375 17.83203125 C-19.109375 15.64453125 -19.109375 15.64453125 -21.109375 12.64453125 C-20.92024408 9.61843649 -20.59328494 7.42416393 -18.984375 4.83203125 C-16.21961316 3.08101542 -13.3226413 3.09551599 -10.109375 2.64453125 C-9.47 2.10828125 -8.830625 1.57203125 -8.171875 1.01953125 C-5.40495633 -0.8250812 -3.20792698 -0.5405951 0 0 Z " fill="#D1B999" transform="translate(42.109375,31.35546875)"/>
<path d="M0 0 C3.4203866 1.17013226 3.91540482 1.87310723 6 5 C6 5.99 6 6.98 6 8 C2.97265625 8.68359375 2.97265625 8.68359375 -0.0546875 9.3671875 C-2.20719964 9.90474428 -2.20719964 9.90474428 -4 12 C-6.12890625 12.66796875 -6.12890625 12.66796875 -8.5625 13.1875 C-9.36816406 13.36667969 -10.17382812 13.54585937 -11.00390625 13.73046875 C-11.66261719 13.81941406 -12.32132813 13.90835938 -13 14 C-14 13 -14 13 -14.25 10.25 C-13.96942185 6.60248409 -13.17668643 4.90224857 -11 2 C-7.28428072 -0.47714618 -4.3028023 -0.42593397 0 0 Z " fill="#F2B22C" transform="translate(35,21)"/>
<path d="M0 0 C1.65 0 3.3 0 5 0 C4.67 1.98 4.34 3.96 4 6 C2.02 6 0.04 6 -2 6 C-2 5.34 -2 4.68 -2 4 C-1.34 4 -0.68 4 0 4 C0 2.68 0 1.36 0 0 Z " fill="#766554" transform="translate(36,45)"/>
<path d="M0 0 C0.33 0.66 0.66 1.32 1 2 C0.37351562 2.27714844 -0.25296875 2.55429687 -0.8984375 2.83984375 C-1.71570312 3.20207031 -2.53296875 3.56429688 -3.375 3.9375 C-4.18710937 4.29714844 -4.99921875 4.65679687 -5.8359375 5.02734375 C-7.23683785 5.6569903 -8.62625284 6.31312642 -10 7 C-9.6875 5.125 -9.6875 5.125 -9 3 C-5.81237635 0.87491756 -3.73487777 0.4979837 0 0 Z " fill="#3F2E1E" transform="translate(41,28)"/>
<path d="M0 0 C1.65 0 3.3 0 5 0 C4.67 1.98 4.34 3.96 4 6 C1.13275314 5.42655063 0.1385485 5.1385485 -2 3 C-1.34 3 -0.68 3 0 3 C0 2.01 0 1.02 0 0 Z " fill="#84725E" transform="translate(29,45)"/>
<path d="M0 0 C2.4375 0.8125 2.4375 0.8125 5 2 C5.33 2.99 5.66 3.98 6 5 C3.03 4.505 3.03 4.505 0 4 C0 2.68 0 1.36 0 0 Z " fill="#1B1311" transform="translate(13,19)"/>
<path d="M0 0 C-0.33 0.99 -0.66 1.98 -1 3 C-3.5625 4.1875 -3.5625 4.1875 -6 5 C-6.33 4.01 -6.66 3.02 -7 2 C-4 0 -4 0 0 0 Z " fill="#1C1412" transform="translate(19,38)"/>
<path d="M0 0 C0.99 0 1.98 0 3 0 C2.6875 2.375 2.6875 2.375 2 5 C1.01 5.66 0.02 6.32 -1 7 C-2 4 -2 4 -1.0625 1.8125 C-0.5365625 0.9153125 -0.5365625 0.9153125 0 0 Z " fill="#221715" transform="translate(40,12)"/>
<path d="M0 0 C0.99 0 1.98 0 3 0 C3.66 1.98 4.32 3.96 5 6 C4.01 6 3.02 6 2 6 C0 3 0 3 0 0 Z " fill="#211714" transform="translate(20,12)"/>
<path d="M0 0 C-0.33 1.32 -0.66 2.64 -1 4 C-2.65 4.33 -4.3 4.66 -6 5 C-3.74193548 0 -3.74193548 0 0 0 Z " fill="#231210" transform="translate(50,19)"/>
<path d="M0 0 C0.99 0.33 1.98 0.66 3 1 C3 2.98 3 4.96 3 7 C2.01 7 1.02 7 0 7 C0 4.69 0 2.38 0 0 Z " fill="#201613" transform="translate(30,9)"/>
<path d="M0 0 C2.31 0 4.62 0 7 0 C7 0.66 7 1.32 7 2 C4.69 2 2.38 2 0 2 C0 1.34 0 0.68 0 0 Z " fill="#221714" transform="translate(10,30)"/>
<path d="M0 0 C0.99 0 1.98 0 3 0 C3 0.99 3 1.98 3 3 C2.01 3 1.02 3 0 3 C0 2.01 0 1.02 0 0 Z " fill="#1A1110" transform="translate(43,52)"/>
<path d="M0 0 C0.99 0 1.98 0 3 0 C2.67 0.99 2.34 1.98 2 3 C1.34 3 0.68 3 0 3 C0 2.01 0 1.02 0 0 Z " fill="#251511" transform="translate(36,52)"/>
<path d="M0 0 C0.99 0.33 1.98 0.66 3 1 C2.67 1.66 2.34 2.32 2 3 C1.34 3 0.68 3 0 3 C0 2.01 0 1.02 0 0 Z " fill="#1E1413" transform="translate(47,52)"/>
<path d="M0 0 C0.66 0 1.32 0 2 0 C2 0.99 2 1.98 2 3 C1.01 2.67 0.02 2.34 -1 2 C-0.67 1.34 -0.34 0.68 0 0 Z " fill="#241511" transform="translate(33,52)"/>
<path d="M0 0 C0.66 0 1.32 0 2 0 C2 0.99 2 1.98 2 3 C1.34 3 0.68 3 0 3 C0 2.01 0 1.02 0 0 Z " fill="#231614" transform="translate(40,52)"/>
</svg>
